<?xml version="1.0" encoding="UTF-8" standalone="no"?>
<!-- Created with Inkscape (http://www.inkscape.org/) -->

<svg
   xmlns:dc="http://purl.org/dc/elements/1.1/"
   xmlns:cc="http://creativecommons.org/ns#"
   xmlns:rdf="http://www.w3.org/1999/02/22-rdf-syntax-ns#"
   xmlns:svg="http://www.w3.org/2000/svg"
   xmlns="http://www.w3.org/2000/svg"
   xmlns:sodipodi="http://sodipodi.sourceforge.net/DTD/sodipodi-0.dtd"
   xmlns:inkscape="http://www.inkscape.org/namespaces/inkscape"
   id="svg2"
   version="1.1"
   inkscape:version="0.91 r13725"
   width="128"
   height="128"
   viewBox="0 0 128 128"
   sodipodi:docname="arrow-down.svg">
  <metadata
     id="metadata8">
    <rdf:RDF>
      <cc:Work
         rdf:about="">
        <dc:format>image/svg+xml</dc:format>
        <dc:type
           rdf:resource="http://purl.org/dc/dcmitype/StillImage" />
        <dc:title />
      </cc:Work>
    </rdf:RDF>
  </metadata>
  <defs
     id="defs6" />
  <sodipodi:namedview
     pagecolor="#ffffff"
     bordercolor="#666666"
     borderopacity="1"
     objecttolerance="10"
     gridtolerance="10"
     guidetolerance="10"
     inkscape:pageopacity="0"
     inkscape:pageshadow="2"
     inkscape:window-width="1920"
     inkscape:window-height="1103"
     id="namedview4"
     showgrid="false"
     inkscape:zoom="1.84375"
     inkscape:cx="-33.084746"
     inkscape:cy="60.745762"
     inkscape:window-x="0"
     inkscape:window-y="27"
     inkscape:window-maximized="1"
     inkscape:current-layer="svg2" />
  <path
     style="fill:#782121"
     d="m 62.324959,111.46912 c -0.957117,-1.23351 -10.402713,-11.05696 -20.990214,-21.829903 -15.30317,-15.571209 -19.25,-20.134612 -19.25,-22.257257 0,-1.468552 0.5625,-2.745473 1.25,-2.837601 1.94712,-0.260922 5.7772,-0.482398 11.5,-0.664988 4.47259,-0.142702 5.25,-0.454923 5.25,-2.108489 0,-1.067541 0.45,-2.219098 1,-2.559017 0.60911,-0.37645 1,-7.943718 1,-19.359017 0,-13.242987 0.352042,-19.093025 1.200001,-19.940984 0.855833,-0.855833 7.121114,-1.2 21.845012,-1.2 19.567237,0 20.742218,0.10741 22.506996,2.057468 1.663658,1.838322 1.906249,4.341377 2.277573,23.500001 l 0.41559,21.442532 8.908799,0 c 15.139884,0 14.333804,2.047162 -10.938848,27.780952 C 67.486575,114.68588 65.752259,115.88614 62.324959,111.46912 Z M 82.094846,90.931803 c 4.680555,-4.795966 10.443251,-10.229001 12.805991,-12.07341 3.075629,-2.400907 4.208974,-3.963202 3.989901,-5.5 -0.280087,-1.964801 -0.915339,-2.14914 -7.503508,-2.177377 -3.958633,-0.01697 -7.558633,-0.391329 -8,-0.831916 C 82.945864,69.908513 82.471607,60.269256 82.333326,48.928529 82.178649,36.243125 81.679114,27.905546 81.03511,27.260445 c -0.608852,-0.60989 -7.567329,-1.191781 -16.632527,-1.390866 -16.29406,-0.357842 -17.265269,-0.12954 -17.302524,4.067286 -0.0123,1.385112 0.575797,1.606778 2.984687,1.125 3.953006,-0.790601 3.953006,1.071123 0,7.495576 -3.804212,6.182633 -3.804212,7.299091 0,3.654424 3.65113,-3.498004 3.884851,-1.861952 0.5,3.5 -2.908792,4.607825 -3.031036,5.141008 -1,4.361626 2.058765,-0.790022 1.879436,0.967702 -0.496262,4.864204 -2.499908,4.100226 -2.500436,4.77417 -0.0037,4.77417 2.825373,0 2.569861,0.8286 -2.489215,8.072268 -2.776466,3.975391 -4.493329,7.528378 -4.499996,9.312591 l -0.0108,2.884858 2.215527,-2.884858 c 4.23814,-5.518526 6.03729,-5.380913 4.704221,0.359815 -1.142659,4.920748 -1.093148,6.157455 0.160352,4.005326 1.436545,-2.466399 2.235194,-2.193888 3.776726,1.288675 1.034524,2.337151 1.64749,2.78767 2.655084,1.951441 1.91642,-1.590487 2.697114,0.284694 1.974598,4.742874 -0.560811,3.460403 -0.488781,3.616422 0.884961,1.916872 2.34565,-2.901963 3.815455,-1.07916 3.080695,3.820573 -0.73459,4.8986 0.694235,6.69843 2.38017,2.998208 1.604787,-3.522124 4.167667,-3.21059 4.167667,0.506606 0,2.822776 0.140934,2.923726 2.75,1.969936 1.5125,-0.55292 6.579545,-4.929281 11.2601,-9.725247 z"
     id="path4138"
     inkscape:connector-curvature="0" />
</svg>
