<?xml version="1.0" encoding="UTF-8" standalone="no"?>
<!-- Created with Inkscape (http://www.inkscape.org/) -->

<svg
   xmlns:dc="http://purl.org/dc/elements/1.1/"
   xmlns:cc="http://creativecommons.org/ns#"
   xmlns:rdf="http://www.w3.org/1999/02/22-rdf-syntax-ns#"
   xmlns:svg="http://www.w3.org/2000/svg"
   xmlns="http://www.w3.org/2000/svg"
   xmlns:sodipodi="http://sodipodi.sourceforge.net/DTD/sodipodi-0.dtd"
   xmlns:inkscape="http://www.inkscape.org/namespaces/inkscape"
   id="svg2"
   version="1.1"
   inkscape:version="0.91 r13725"
   width="1200"
   height="768"
   viewBox="0 0 1200 768"
   sodipodi:docname="envelope-2.svg">
  <metadata
     id="metadata8">
    <rdf:RDF>
      <cc:Work
         rdf:about="">
        <dc:format>image/svg+xml</dc:format>
        <dc:type
           rdf:resource="http://purl.org/dc/dcmitype/StillImage" />
        <dc:title></dc:title>
      </cc:Work>
    </rdf:RDF>
  </metadata>
  <defs
     id="defs6" />
  <sodipodi:namedview
     pagecolor="#ffffff"
     bordercolor="#666666"
     borderopacity="1"
     objecttolerance="10"
     gridtolerance="10"
     guidetolerance="10"
     inkscape:pageopacity="0"
     inkscape:pageshadow="2"
     inkscape:window-width="1920"
     inkscape:window-height="1103"
     id="namedview4"
     showgrid="false"
     inkscape:zoom="0.30729167"
     inkscape:cx="600"
     inkscape:cy="377.49153"
     inkscape:window-x="0"
     inkscape:window-y="27"
     inkscape:window-maximized="1"
     inkscape:current-layer="svg2" />
  <g
     id="g4138"
     transform="translate(3.2542017,-3.2542404)">
    <path
       style="fill:#fdfdfd"
       d="M 0,384 0,0 l 600,0 600,0 0,384 0,384 -600,0 -600,0 0,-384 z"
       id="path4154"
       inkscape:connector-curvature="0" />
    <path
       style="fill:#f1f2e2"
       d="M 1.607442,764.27898 C 2.1614171,761.32604 63.602369,682.32001 299.26226,381.52898 587.16117,14.061225 596.31917,2.5 599.50278,2.5 c 3.18502,0 12.23231,11.4519 300.82608,380.78014 186.77804,239.02942 297.48704,381.51345 297.39394,382.75 C 1197.5753,767.98759 1193.8055,768 599.24188,768 L 0.90937388,768 1.607442,764.27898 Z"
       id="path4152"
       inkscape:connector-curvature="0" />
    <path
       style="fill:#ece8d9"
       d="M 1.5387258,764.82368 C 2.0030976,762.70941 101.74734,634.63319 299.84897,381.77953 555.49431,55.478027 597.78358,1.9531752 599.74504,2.205848 c 1.7191,0.2214525 75.88927,94.49503 300.10254,381.443642 163.80052,209.63221 297.81912,381.86971 297.81912,382.75 0,1.01006 -0.8608,1.60051 -2.3334,1.60051 -1.2833,0 -2.3333,-0.45 -2.3333,-1 0,-0.55 -0.7923,-1 -1.7606,-1 -1.157,0 -102.7392,-129.25911 -296.25003,-376.96548 C 733.02022,181.70351 600.05,12.068703 599.5,12.068281 598.95,12.06786 465.81068,181.47022 303.63484,388.51797 101.13098,647.05196 7.8179297,765.44321 5.7312015,766.48421 c -4.3562261,2.17317 -4.98021469,1.92602 -4.1924757,-1.66053 z"
       id="path4150"
       inkscape:connector-curvature="0" />
    <path
       style="fill:#dac3b6"
       d="m 1.4691775,765.25 c 0.3772965,-1.5125 2.4318518,-5 4.5656785,-7.75 2.1338267,-2.75 136.101984,-173.75 297.707014,-380 210.70075,-268.9089 294.37477,-375 295.76238,-375 1.38909,0 86.04686,107.63978 300.04651,381.5 163.96124,209.825 298.11244,382.0625 298.11364,382.75 0,0.6875 -1.0477,1.25 -2.3311,1.25 -1.2833,0 -2.3333,-0.417 -2.3333,-0.92668 0,-0.50967 -0.6603,-1.07217 -1.4672,-1.25 C 1190.7258,765.6455 1057.5059,595.85 895.48847,388.5 733.47109,181.15 600.27558,11.5 599.49845,11.5 598.72131,11.5 465.74052,180.475 303.98557,387 142.23063,593.525 8.4658909,763.7375 6.7306081,765.25 4.9953253,766.7625 2.9472664,768 2.1793662,768 1.1566235,768 0.96666796,767.26445 1.4691775,765.25 Z"
       id="path4148"
       inkscape:connector-curvature="0" />
    <path
       style="fill:#cb9e99"
       d="m 1.0354354,766.75 c 0.01949,-0.6875 0.5819895,-2.20708 1.25,-3.37685 C 5.0270631,758.57223 598.47962,2 599.50381,2 c 1.10783,0 594.83739,759.08028 597.27809,763.61716 1.1788,2.19109 1.097,2.38284 -1.0162,2.38284 -1.4616,0 -3.6333,-1.54695 -5.9662,-4.25 C 1187.7821,761.4125 1054.4571,590.975 893.52183,385 732.58657,179.025 600.2761,10.5 599.49858,10.5 598.72107,10.5 465.53322,179.7 303.5256,386.5 141.51797,593.3 7.8107219,763.7375 6.3983738,765.25 c -2.6841384,2.87447 -5.42362371,3.6407 -5.3629384,1.5 z"
       id="path4146"
       inkscape:connector-curvature="0" />
    <path
       style="fill:#bc857c"
       d="M 1.2266253,766.24139 C 1.9965086,763.29735 597.96746,3 599.50531,3 c 0.73049,0 135.74285,172.0125 300.02747,382.25 248.82862,318.42978 298.34572,382.30339 296.58162,382.56977 -1.1648,0.17587 -2.7018,-0.27413 -3.4158,-1 C 1191.9847,766.0939 1059.4006,596.525 898.0674,390 736.73416,183.475 603.5771,13.254426 602.16284,11.732058 l -2.5714,-2.7679415 -2.01273,2.0127285 C 596.47171,12.083846 462.56445,182.75051 300.00701,390.23609 128.32723,609.36529 3.6655045,767.63332 2.581013,767.84217 1.1499222,768.11778 0.83368196,767.744 1.2266253,766.24139 Z"
       id="path4144"
       inkscape:connector-curvature="0" />
    <path
       style="fill:#aa5d5a"
       d="M 1.1766758,766.55023 C 1.7219242,764.10537 598.13003,3.5 599.50185,3.5 c 0.70658,0 135.61422,171.9 299.79477,382 240.67428,307.98815 298.12468,382.06409 296.52088,382.3308 -1.0941,0.18194 -2.1046,0.18194 -2.2457,0 C 1108.782,658.44905 600.34167,9 599.49882,9 598.81658,9 464.46307,179.775 300.93546,388.5 137.40785,597.225 2.9917162,768 2.2329417,768 1.4741672,768 0.99884755,767.3476 1.1766758,766.55023 Z"
       id="path4142"
       inkscape:connector-curvature="0" />
    <path
       style="fill:#912a29"
       d="m 1,766.58333 c 0,-0.77916 0.4085199,-1.56666 0.9078221,-1.75 C 2.4071243,764.65 136.78119,593.5 300.51685,384.5 c 163.73566,-209 298.2789,-380 298.98498,-380 0.70607,0 135.06913,171.225 298.58457,380.5 163.5154,209.275 298.0012,381.04819 298.8572,381.7182 1.334,1.04411 1.1801,1.22274 -1.077,1.25 -1.6682,0.0201 -2.8177,-0.60959 -3.1363,-1.7182 C 1192.4537,765.2875 1059.2793,594.4 896.7872,386.5 693.39486,126.27029 600.77167,8.5 599.50027,8.5 598.23033,8.5 505.23954,126.41123 301.78459,386 139.0567,593.625 5.495802,764.5125 4.9825987,765.75 3.9573655,768.22217 1,768.84098 1,766.58333 Z"
       id="path4140"
       inkscape:connector-curvature="0" />
  </g>
</svg>
