<?xml version="1.0" encoding="UTF-8" standalone="no"?>
<!-- Created with Inkscape (http://www.inkscape.org/) -->

<svg
   xmlns:dc="http://purl.org/dc/elements/1.1/"
   xmlns:cc="http://creativecommons.org/ns#"
   xmlns:rdf="http://www.w3.org/1999/02/22-rdf-syntax-ns#"
   xmlns:svg="http://www.w3.org/2000/svg"
   xmlns="http://www.w3.org/2000/svg"
   xmlns:sodipodi="http://sodipodi.sourceforge.net/DTD/sodipodi-0.dtd"
   xmlns:inkscape="http://www.inkscape.org/namespaces/inkscape"
   id="svg2"
   version="1.1"
   inkscape:version="0.91 r13725"
   width="128"
   height="128"
   viewBox="0 0 128 128"
   sodipodi:docname="facebook.svg">
  <metadata
     id="metadata8">
    <rdf:RDF>
      <cc:Work
         rdf:about="">
        <dc:format>image/svg+xml</dc:format>
        <dc:type
           rdf:resource="http://purl.org/dc/dcmitype/StillImage" />
        <dc:title></dc:title>
      </cc:Work>
    </rdf:RDF>
  </metadata>
  <defs
     id="defs6" />
  <sodipodi:namedview
     pagecolor="#ffffff"
     bordercolor="#666666"
     borderopacity="1"
     objecttolerance="10"
     gridtolerance="10"
     guidetolerance="10"
     inkscape:pageopacity="0"
     inkscape:pageshadow="2"
     inkscape:window-width="1920"
     inkscape:window-height="1103"
     id="namedview4"
     showgrid="false"
     inkscape:zoom="1.3037281"
     inkscape:cx="64"
     inkscape:cy="62.915254"
     inkscape:window-x="0"
     inkscape:window-y="27"
     inkscape:window-maximized="1"
     inkscape:current-layer="svg2" />
  <path
     style="fill:#782121"
     d="m 50.203972,105.28406 c 0.10024,-1.2375 0.0469,-2.7 -0.11859,-3.24999 -0.16547,-0.55 -0.33114,-4.375004 -0.36816,-8.500004 -0.037,-4.125 -0.17645,-12.0988 -0.30984,-17.71955 l -0.24254,-10.21955 -3.55036,0.13347 c -4.71092,0.1771 -6.7465,-2.01565 -6.85929,-7.38894 l -0.0904,-4.30383 5,-0.8496 5,-0.8496 0,-10.81583 c 0,-10.03991 0.17222,-10.99949 2.40067,-13.37603 4.05894,-4.32867 9.88232,-5.92522 19.72736,-5.40849 7.60583,0.3992 8.91119,0.74563 10.58131,2.80813 1.48889,1.83871 1.76351,3.24169 1.25694,6.42129 -0.78745,4.94252 -2.66689,6.56853 -7.59231,6.56853 -2.05907,0 -4.93285,0.45208 -6.38617,1.00464 -2.42817,0.92318 -2.61256,1.38936 -2.27433,5.75 l 0.36808,4.74536 4.3199,-0.2806 c 2.37595,-0.15432 4.9451,0.23828 5.70923,0.87245 1.68016,1.39441 1.77602,5.48679 0.26873,11.47279 -1.04609,4.15438 -1.38488,4.49255 -5.09516,5.08585 l -3.97456,0.63555 0.34516,17.92168 0.34515,17.921674 -5.46161,1.9353 c -3.00389,1.06441 -7.19859,1.9353 -9.32157,1.9353 -3.39024,0 -3.83777,-0.27379 -3.67769,-2.25 z m 10.62079,-4.35672 c 2.09919,-0.56313 2.15861,-1.019624 2.11333,-16.236354 -0.0605,-20.34714 0.37376,-22.15692 5.31715,-22.15692 2.98964,0 3.27196,-0.33434 4.30785,-5.10146 0.55789,-2.5674 0.50178,-2.59535 -4.28654,-2.13525 -2.66852,0.25641 -5.12422,0.0255 -5.45713,-0.51318 -1.06483,-1.72293 -1.93478,-11.99757 -1.24763,-14.73537 0.76972,-3.06683 7.18057,-6.45762 12.27566,-6.49278 2.35567,-0.0163 3.35785,-0.57407 3.85702,-2.14681 0.97054,-3.05791 -0.94398,-3.84226 -9.42159,-3.85984 -5.68028,-0.0118 -8.13549,0.45039 -10.65078,2.00492 -3.89183,2.40529 -5.57386,5.46576 -2.46097,4.47777 1.09654,-0.34803 1.99371,-0.39863 1.99371,-0.11244 0,0.58904 -1.73855,5.01182 -3.27274,8.32566 -0.58752,1.26906 -0.76354,4.99727 -0.41311,8.75 0.66619,7.13404 1.06502,6.65912 -5.81415,6.92349 -1.94876,0.0749 -3,0.64091 -3,1.61529 0,1.08003 1.32991,1.58533 4.75,1.80479 l 4.75,0.30479 0,4.11952 0,4.11952 2.5,-2.34862 c 2.46748,-2.31808 2.5,-2.32119 2.5,-0.23942 0,1.16007 -0.43067,3.24197 -0.95705,4.62645 -0.77541,2.0395 -0.68052,2.41112 0.5,1.95811 1.99536,-0.76569 1.8584,1.57714 -0.44687,7.64413 -1.54426,4.06415 -1.63871,5.01073 -0.5,5.01073 1.70775,0 1.78772,1.41434 0.24315,4.3004 -1.49381,2.7912 -1.78557,10.703964 -0.39402,10.685944 0.58013,-0.007 2.02676,-0.27439 3.21471,-0.59307 z"
     id="path4138"
     inkscape:connector-curvature="0" />
</svg>
