<?xml version="1.0" encoding="UTF-8" standalone="no"?>
<!-- Created with Inkscape (http://www.inkscape.org/) -->

<svg
   xmlns:dc="http://purl.org/dc/elements/1.1/"
   xmlns:cc="http://creativecommons.org/ns#"
   xmlns:rdf="http://www.w3.org/1999/02/22-rdf-syntax-ns#"
   xmlns:svg="http://www.w3.org/2000/svg"
   xmlns="http://www.w3.org/2000/svg"
   xmlns:sodipodi="http://sodipodi.sourceforge.net/DTD/sodipodi-0.dtd"
   xmlns:inkscape="http://www.inkscape.org/namespaces/inkscape"
   id="svg2"
   version="1.1"
   inkscape:version="0.91 r13725"
   width="128"
   height="128"
   viewBox="0 0 128 128"
   sodipodi:docname="instagram.svg">
  <metadata
     id="metadata8">
    <rdf:RDF>
      <cc:Work
         rdf:about="">
        <dc:format>image/svg+xml</dc:format>
        <dc:type
           rdf:resource="http://purl.org/dc/dcmitype/StillImage" />
        <dc:title></dc:title>
      </cc:Work>
    </rdf:RDF>
  </metadata>
  <defs
     id="defs6" />
  <sodipodi:namedview
     pagecolor="#ffffff"
     bordercolor="#666666"
     borderopacity="1"
     objecttolerance="10"
     gridtolerance="10"
     guidetolerance="10"
     inkscape:pageopacity="0"
     inkscape:pageshadow="2"
     inkscape:window-width="1920"
     inkscape:window-height="1103"
     id="namedview4"
     showgrid="false"
     inkscape:zoom="1.84375"
     inkscape:cx="-16.542373"
     inkscape:cy="61.830508"
     inkscape:window-x="0"
     inkscape:window-y="27"
     inkscape:window-maximized="1"
     inkscape:current-layer="svg2" />
  <path
     style="fill:#782121"
     d="m 37.290502,105.90503 c -0.93817,-0.37385 -3.38722,-0.71135 -5.44234,-0.75 -5.9545,-0.11201 -7.2101,-3.95519 -7.37389,-22.570284 -0.0726,-8.25 -0.48154,-24.239121 -0.90877,-35.531379 l -0.77679,-20.53138 4.1713,-1.880992 c 2.83567,-1.278713 6.48523,-1.883915 11.39801,-1.890121 13.62995,-0.01722 64.594718,2.134251 65.623858,2.770298 0.56585,0.349712 1.50863,2.30708 2.09507,4.349707 1.39966,4.875185 2.5508,66.615323 1.32715,71.180521 -0.7728,2.88315 -1.51851,3.58908 -4.43043,4.19409 -4.579866,0.95155 -63.466488,1.54284 -65.683168,0.65954 z m 9.92674,-9.320284 c 1.20871,-2.048608 2.85346,-3.5 3.96628,-3.5 2.28238,0 2.39913,0.959454 0.43303,3.55887 -2.16862,2.867171 -1.87989,3.441134 1.73107,3.441134 2.38729,0 3.52776,-0.586424 4.25,-2.185311 1.37814,-3.050931 3.27017,-3.372639 3.66002,-0.622325 0.32593,2.299333 0.39098,2.308614 18.08801,2.580751 17.660604,0.271575 17.765936,0.260285 18.652068,-2 1.738946,-4.435574 2.89642,-18.477099 2.74278,-33.273119 l -0.15575,-15 -7.469641,-0.298243 -7.469635,-0.298242 2.153023,2.298242 c 3.193477,3.408875 4.288765,7.162331 4.264286,14.613343 -0.0273,8.31128 -2.139269,13.134223 -8.401056,19.1849 l -4.657005,4.5 -10.70999,0.323373 -10.70999,0.323373 -6.11848,-3.966561 c -8.55109,-5.5436 -9.38263,-7.020511 -9.37594,-16.652691 0.006,-8.774255 1.3311,-15.057654 3.7488,-17.777494 1.44323,-1.623585 1.33829,-1.75 -1.4527,-1.75 -1.65456,0 -5.82671,-0.294583 -9.27145,-0.654629 -5.8357,-0.609952 -6.22626,-0.524641 -5.72251,1.25 0.29736,1.047546 0.84669,8.10756 1.22075,15.688919 0.63759,12.922739 0.79858,13.746684 2.57581,13.182613 2.31418,-0.73449 2.34657,0.0045 0.33968,7.749376 -1.74275,6.72551 -1.35416,8.444549 0.91637,4.053819 1.43214,-2.769445 4.63967,-6.177391 4.63967,-4.929563 0,0.321983 -0.9,2.868743 -2,5.659465 -1.1,2.790722 -2,5.517755 -2,6.060073 0,1.760484 4.90724,-2.173908 7.06395,-5.663544 1.15455,-1.868091 2.73747,-3.396529 3.51761,-3.396529 1.95808,0 1.78881,0.882034 -1.05547,5.5 -2.90261,4.712668 -3.04467,5.500004 -0.99236,5.500004 0.84355,0 2.463,-1.575004 3.59877,-3.500004 z m 23.76963,-11.902034 c 1.32117,-0.73214 3.16791,-1.130907 4.10386,-0.886149 1.6668,0.435877 6.243312,-4.423401 8.849319,-9.396076 1.266337,-2.416372 1.449789,-8.131892 0.511622,-15.939841 -0.56099,-4.668871 -0.937791,-5.277465 -4.241311,-6.850384 l -3.62562,-1.726283 2.67052,2.478976 c 3.00426,2.788774 4.445513,9.260661 3.442029,15.456277 -0.335438,2.071033 -0.685486,4.388014 -0.777884,5.148847 -0.0924,0.760834 -1.639625,2.85496 -3.438275,4.653614 -6.3103,6.310297 -18.52841,6.588799 -25.11543,0.572486 -2.53488,-2.315258 -3.16619,-3.94341 -4.26308,-10.994494 -1.19774,-7.699434 -1.15608,-8.452626 0.59729,-10.7978 5.21597,-6.976516 12.94563,-9.85039 21.13483,-7.85789 2.57367,0.626194 3.25,0.478597 3.25,-0.709249 0,-3.186809 -11.10991,-3.661022 -17.50608,-0.747227 -6.30983,2.87446 -9.42598,7.452379 -10.56959,15.527759 -1.5035,10.616614 0.56336,15.636973 7.9995,19.430609 3.67801,1.87638 6.36684,2.618646 14.07617,3.885805 0.275,0.0452 1.58096,-0.51684 2.90213,-1.24898 z m 7.10237,-19.103385 c 1.40248,-1.689884 0.63611,-9.017773 -1.1708,-11.194967 -2.85481,-3.439835 -9.8337,0.946237 -9.8337,6.180257 0,4.736852 8.15205,8.451709 11.0045,5.01471 z M 31.262012,40.477416 c -0.52321,-4.48161 -2.57913,-3.891928 -2.98292,0.855563 -0.2615,3.074589 -0.0388,3.52385 1.54194,3.110479 1.45914,-0.381574 1.7621,-1.215414 1.44098,-3.966042 z m 11.82273,-0.69267 c 0,-2.365 -0.54,-4.84 -1.2,-5.5 -0.93333,-0.933333 -0.93333,-1.2 0,-1.2 0.66,0 1.2,-0.9 1.2,-2 0,-1.357163 -0.66666,-2 -2.07414,-2 -1.85638,0 -2.0464,0.522471 -1.80999,4.976665 0.14527,2.737166 -0.0464,5.287166 -0.42586,5.666667 -0.37951,0.379501 -0.69001,1.515001 -0.69001,2.523335 0,1.288889 0.74243,1.833333 2.5,1.833333 2.27907,0 2.5,-0.38 2.5,-4.3 z m 10.5691,3.188197 c 0.37792,-0.611492 0.067,-1.504602 -0.69098,-1.984688 -0.99796,-0.632096 -1.0333,-0.877108 -0.12812,-0.888196 0.78912,-0.0097 1.25,-1.490146 1.25,-4.015313 0,-2.2909 -0.47959,-4 -1.12244,-4 -0.7676,0 -0.72255,-0.481847 0.1425,-1.524166 0.69572,-0.838291 0.93903,-1.850084 0.54068,-2.248428 -1.63626,-1.636259 -3.1373,2.894623 -2.95855,8.930385 0.1033,3.488215 0.23506,6.454709 0.29281,6.592209 0.28922,0.688602 2.07074,0.114455 2.6741,-0.861803 z m 47.927238,-2.866471 c 0.79497,-4.705367 -0.17348,-10.02147 -1.82579,-10.022348 -0.786096,-4.17e-4 -1.055405,1.661514 -0.819976,5.060132 0.26203,3.782629 -0.09281,5.55068 -1.404988,7.000622 -1.694099,1.871959 -1.66569,1.939868 0.811534,1.939868 2.2133,0 2.65972,-0.548272 3.23922,-3.978274 z m -25.501228,1.1176 c 0.96219,-1.306428 5.940546,-4.13918 7.21971,-4.108116 0.706851,0.01716 -0.514817,1.139859 -2.71482,2.494876 l -4,2.463667 5.049202,0.0051 5.0492,0.0051 -0.37476,-3.25 c -0.525055,-4.553396 1.2141,-8.50989 3.972483,-9.037207 1.267133,-0.242236 -2.202129,-0.501711 -7.70947,-0.576611 -9.897085,-0.134601 -10.074155,-0.09524 -15.249995,3.390385 -2.88016,1.939659 -5.23666,3.049483 -5.23666,2.466322 0,-0.583161 1.575,-1.989565 3.5,-3.125343 1.925,-1.135778 3.5,-2.245602 3.5,-2.466275 0,-0.220673 -2.25,-0.401224 -5,-0.401224 l -5,0 0,6.333333 c 0,3.483334 0.1855,6.520834 0.41222,6.75 0.67089,0.67812 16.03224,-0.196349 16.58289,-0.944007 z m -8.99511,-4.139326 c 0,-0.55 0.47656,-1 1.05902,-1 0.58246,0 0.7809,0.45 0.44098,1 -0.33992,0.55 -0.81647,1 -1.05901,1 -0.24254,0 -0.44099,-0.45 -0.44099,-1 z m 9,-1.47432 c 0,-0.260876 1.4625,-1.187962 3.25,-2.060192 l 3.250003,-1.585873 -2.500003,2.037957 c -2.40702,1.962161 -4,2.602582 -4,1.608108 z m -1.55887,-4.075417 c 2.1498,-1.606165 3.97929,-1.939527 3.13347,-0.57097 -0.29888,0.483612 -1.56294,1.13623 -2.80901,1.450264 -2.18577,0.550854 -2.1972,0.519876 -0.32446,-0.879294 z m -44.44113,1.99072 c 0,-1.451367 -0.43284,-2.291506 -1,-1.940983 -0.55,0.339919 -1,1.491476 -1,2.559017 0,1.067541 0.45,1.940983 1,1.940983 0.55,0 1,-1.151558 1,-2.559017 z"
     id="path4138"
     inkscape:connector-curvature="0" />
</svg>
