<?xml version="1.0" encoding="UTF-8" standalone="no"?>
<!-- Created with Inkscape (http://www.inkscape.org/) -->

<svg
   xmlns:dc="http://purl.org/dc/elements/1.1/"
   xmlns:cc="http://creativecommons.org/ns#"
   xmlns:rdf="http://www.w3.org/1999/02/22-rdf-syntax-ns#"
   xmlns:svg="http://www.w3.org/2000/svg"
   xmlns="http://www.w3.org/2000/svg"
   xmlns:sodipodi="http://sodipodi.sourceforge.net/DTD/sodipodi-0.dtd"
   xmlns:inkscape="http://www.inkscape.org/namespaces/inkscape"
   id="svg2"
   version="1.1"
   inkscape:version="0.91 r13725"
   width="128"
   height="128"
   viewBox="0 0 128 128"
   sodipodi:docname="linkedin.svg">
  <metadata
     id="metadata8">
    <rdf:RDF>
      <cc:Work
         rdf:about="">
        <dc:format>image/svg+xml</dc:format>
        <dc:type
           rdf:resource="http://purl.org/dc/dcmitype/StillImage" />
        <dc:title></dc:title>
      </cc:Work>
    </rdf:RDF>
  </metadata>
  <defs
     id="defs6" />
  <sodipodi:namedview
     pagecolor="#ffffff"
     bordercolor="#666666"
     borderopacity="1"
     objecttolerance="10"
     gridtolerance="10"
     guidetolerance="10"
     inkscape:pageopacity="0"
     inkscape:pageshadow="2"
     inkscape:window-width="1920"
     inkscape:window-height="1103"
     id="namedview4"
     showgrid="false"
     inkscape:zoom="1.84375"
     inkscape:cx="64"
     inkscape:cy="61.830508"
     inkscape:window-x="0"
     inkscape:window-y="27"
     inkscape:window-maximized="1"
     inkscape:current-layer="svg2" />
  <path
     style="fill:#782121"
     d="m 25.422687,98.923474 c -1.50853,-1.666919 -2.07176,-4.002058 -2.37498,-9.84667 -0.49389,-9.520011 1.76906,-39.217557 3.11745,-40.91155 1.45166,-1.823714 10.26617,-1.591074 12.17867,0.321429 0.93275,0.93275 1.56622,3.269731 1.55863,5.75 -0.007,2.298214 0.74763,12.252012 1.67706,22.11955 1.27836,13.572122 1.40323,18.036523 0.5128,18.333334 -0.64738,0.215794 -1.17706,1.014021 -1.17706,1.773837 0,1.921754 -2.80076,3.22388 -8.58456,3.991126 -4.27526,0.56713 -5.19331,0.36366 -6.90801,-1.531056 z m 10.13018,-13.75822 c -0.36073,-4.2625 -0.94534,-12.8125 -1.29914,-19 -1.25276,-21.908839 -4.31818,-9.529131 -4.3333,17.5 l -0.005,9.25 3.14673,0 3.14674,0 -0.65586,-7.75 z m 20.96943,13.86828 c -2.28263,-2.522277 -3.25204,-6.42492 -5.07218,-20.419496 -1.61624,-12.42692 -1.95494,-24.354812 -0.90839,-31.99028 0.53381,-3.894517 1.07925,-4.758185 3.68727,-5.838462 1.68344,-0.697303 5.11403,-1.290822 7.62353,-1.318933 4.2489,-0.04759 4.58449,0.138037 4.87915,2.698891 0.37291,3.240899 0.46722,3.265481 3.89972,1.016424 3.62506,-2.37523 13.55509,-2.342399 18.897404,0.06248 5.097429,2.294642 10.824029,10.633745 12.338459,17.967318 1.29913,6.290976 1.87499,34.698532 0.73897,36.453777 -0.88579,1.368631 -14.369688,1.769901 -16.287003,0.484687 -1.47632,-0.989605 -2.26333,-4.540681 -2.95962,-13.354114 -0.96656,-12.234561 -3.15811,-20.232154 -6.39356,-23.331907 -3.06659,-2.937984 -5.69591,-3.065809 -7.39996,-0.359752 -1.33926,2.126761 0.67105,27.74757 2.56171,32.648267 1.19177,3.089165 1.11201,3.479338 -1.07333,5.25 -3.27051,2.649916 -12.14498,2.668906 -14.53217,0.0311 z M 97.574289,91.361412 C 97.902235,90.506799 97.759736,83.400055 97.257625,75.568647 96.469834,63.281501 95.99164,60.65022 93.769027,56.372489 c -3.300396,-6.352074 -7.7498,-9.457235 -13.55132,-9.457235 -2.42097,0 -5.61693,0.621788 -7.10211,1.381752 -1.48519,0.759964 -4.57968,1.693915 -6.87664,2.075446 -4.03285,0.669867 -4.18742,0.596645 -4.5,-2.131752 -0.27225,-2.376374 -0.84134,-2.875332 -3.58058,-3.139317 -3.74439,-0.360854 -5.29884,1.893744 -3.40094,4.932768 0.6368,1.019681 1.19334,3.322571 1.23676,5.117534 0.0434,1.794963 0.30593,2.701069 0.58334,2.013569 0.27741,-0.6875 1.36688,-1.25 2.42105,-1.25 2.4124,0 2.56692,3.905527 0.39777,10.053574 -1.13001,3.202777 -1.22173,4.488692 -0.35824,5.022358 0.78844,0.487285 0.99529,3.028692 0.64499,7.924608 -0.55842,7.80461 0.72058,12.998633 3.20139,13.000793 1.32529,0.0012 1.4882,-2.210711 1.21374,-16.478437 -0.31687,-16.4723 -0.31588,-16.480913 2.20455,-19.001333 1.92119,-1.921191 3.55549,-2.521563 6.86407,-2.521563 3.70643,0 4.87385,0.549283 7.97009,3.75 4.25061,4.394041 7.556936,13.312147 8.349236,22.520251 1.063995,12.36575 1.192834,12.729749 4.505769,12.729749 1.777782,0 3.227345,-0.62875 3.582337,-1.553842 z M 27.249737,41.340648 c -2.27092,-2.27092 -2.51661,-3.178125 -2.08297,-7.691158 0.93433,-9.723706 9.60108,-13.081646 16.34849,-6.334236 4.53226,4.53226 4.70375,9.450098 0.47692,13.676923 -4.00689,4.006891 -10.9206,4.170312 -14.74244,0.348471 z m 10.51404,-6.859297 c 0.42543,-2.229898 -2.37857,-4.683663 -4.44572,-3.890425 -1.45742,0.559263 -1.93249,4.46131 -0.69395,5.699844 1.33516,1.335163 4.77047,0.125765 5.13967,-1.809419 z"
     id="path4138"
     inkscape:connector-curvature="0" />
</svg>
